<?xml version="1.0" encoding="iso-8859-1"?>
<!-- Generator: Adobe Illustrator 19.0.0, SVG Export Plug-In . SVG Version: 6.00 Build 0)  -->
<svg version="1.1" id="Capa_1" xmlns="http://www.w3.org/2000/svg" xmlns:xlink="http://www.w3.org/1999/xlink" x="0px" y="0px"
	 viewBox="0 0 490 490" style="enable-background:new 0 0 490 490;" xml:space="preserve">
<g>
	<path d="M370.67,325.391l-18.303-24.554c-105.857,78.94-210.188,3.26-214.584,0l-18.333,24.539
		c0.837,0.613,56.629,41.466,130.53,41.466C287.184,366.842,328.994,356.479,370.67,325.391z"/>
	<circle cx="165.709" cy="175.209" r="42.642"/>
	<polygon points="366.917,204.999 321.009,175.212 366.932,145.409 350.243,119.719 264.754,175.212 350.259,230.689 	"/>
	<path d="M69.086,490h351.829C459.001,490,490,459.001,490,420.914V69.086C490,30.999,459.001,0,420.914,0H69.086
		C30.999,0,0,30.999,0,69.086v351.829C0,459.001,30.999,490,69.086,490z M30.625,69.086c0-21.204,17.257-38.461,38.461-38.461
		h351.829c21.204,0,38.461,17.257,38.461,38.461v351.829c0,21.204-17.257,38.461-38.461,38.461H69.086
		c-21.204,0-38.461-17.257-38.461-38.461V69.086z"/>
</g>
<g>
</g>
<g>
</g>
<g>
</g>
<g>
</g>
<g>
</g>
<g>
</g>
<g>
</g>
<g>
</g>
<g>
</g>
<g>
</g>
<g>
</g>
<g>
</g>
<g>
</g>
<g>
</g>
<g>
</g>
</svg>
